<?xml version="1.0" encoding="UTF-8" standalone="no"?><svg width="51" height="30" viewBox="0 0 51 30" fill="none" xmlns="http://www.w3.org/2000/svg">
<rect width="51" height="30" rx="3" fill="#055E7C"/>
<path fill-rule="evenodd" clip-rule="evenodd" d="M16.6221 13.6234C16.6304 13.6225 16.6388 13.6225 16.647 13.6234V13.6177C17.0827 13.6153 17.5146 13.6983 17.918 13.8617C18.3214 14.0252 18.6885 14.266 18.9982 14.5704C19.308 14.8748 19.5544 15.2368 19.7233 15.6359C19.8922 16.0349 19.9804 16.463 19.9828 16.8959C19.9852 17.3288 19.9017 17.7579 19.7372 18.1587C19.5727 18.5596 19.3304 18.9243 19.024 19.232C18.7176 19.5398 18.3532 19.7846 17.9516 19.9525C17.5501 20.1203 17.1191 20.2079 16.6835 20.2103H9.11257V23.1065C9.10672 23.4137 8.97827 23.706 8.75548 23.9192C8.53269 24.1323 8.2338 24.2488 7.92458 24.243C7.61535 24.2372 7.32112 24.1096 7.1066 23.8882C7.00038 23.7786 6.91693 23.6493 6.86101 23.5076C6.80509 23.366 6.7778 23.2148 6.7807 23.0626V19.0118C6.77308 18.8615 6.79657 18.7112 6.8497 18.5702C6.90283 18.4293 6.98448 18.3006 7.08961 18.1922C7.19474 18.0838 7.32112 17.998 7.46093 17.9401C7.60075 17.8821 7.75104 17.8532 7.90253 17.8553H16.7237C16.9577 17.838 17.1772 17.736 17.3407 17.5687C17.5041 17.4014 17.6001 17.1803 17.6105 16.9474C17.6209 16.7145 17.5449 16.4859 17.3971 16.3049C17.2492 16.1238 17.0397 16.003 16.8081 15.9651C16.7775 15.9631 16.7467 15.9631 16.7161 15.9651H7.97156C7.86983 15.9656 7.76852 15.9521 7.67049 15.9251C7.39008 15.8413 7.14495 15.6687 6.97246 15.4335C6.85682 15.2566 6.79138 15.052 6.78305 14.8412C6.77472 14.6304 6.82381 14.4213 6.92515 14.2359C7.02648 14.0506 7.1763 13.8958 7.35878 13.788C7.54127 13.6802 7.74967 13.6234 7.96197 13.6234H16.6221ZM43.0324 13.6883C42.7237 13.6883 42.4272 13.8079 42.2059 14.0218L37.452 17.8325L36.5526 17.1199L32.677 14.058L32.608 13.9989C32.5486 13.9513 32.5409 13.9455 32.445 13.8769C32.2433 13.7167 31.9937 13.6276 31.7355 13.6235C31.5839 13.6253 31.4341 13.6568 31.2948 13.7162C31.1555 13.7756 31.0294 13.8618 30.9237 13.9698C30.8181 14.0778 30.7349 14.2055 30.6791 14.3455C30.6232 14.4856 30.5958 14.6352 30.5983 14.7858C30.5976 14.9545 30.6336 15.1213 30.7038 15.2748C30.7739 15.4284 30.8766 15.5651 31.0048 15.6756L31.0375 15.7023L35.4481 19.3072L36.2151 19.9417V23.1008C36.2118 23.4076 36.3313 23.703 36.5472 23.9223C36.7632 24.1415 37.058 24.2665 37.3667 24.2698C37.6754 24.2731 37.9728 24.1544 38.1934 23.9398C38.414 23.7252 38.5398 23.4323 38.5432 23.1256V19.9436L43.2625 16.2091L43.3162 16.1653L43.4543 16.051C43.4643 16.0424 43.4754 16.0333 43.4869 16.024L43.4869 16.0239L43.487 16.0239C43.5084 16.0065 43.5308 15.9883 43.5482 15.9709L43.74 15.8166C43.8865 15.7031 44.0059 15.5588 44.0898 15.3942C44.1736 15.2295 44.2199 15.0484 44.2252 14.8639C44.2247 14.7089 44.1934 14.5555 44.1332 14.4124C44.0729 14.2694 43.9849 14.1396 43.8741 14.0304C43.7633 13.9212 43.632 13.8348 43.4875 13.7761C43.3431 13.7174 43.1884 13.6876 43.0324 13.6883ZM31.8827 22.4414L26.3004 14.115C26.1546 13.9147 25.9488 13.7653 25.7124 13.6881C25.4761 13.6109 25.2212 13.6098 24.9842 13.685C24.7472 13.7602 24.5401 13.9078 24.3925 14.1068C24.2449 14.3058 24.1643 14.5461 24.1623 14.7933C24.1621 15.0436 24.2428 15.2873 24.3924 15.4887L27.0387 19.269H22.0126C21.7971 19.2911 21.5884 19.3566 21.3991 19.4614C21.2099 19.5662 21.0441 19.7082 20.9118 19.8787L19.1361 22.369C19.0347 22.4826 18.9574 22.6153 18.9089 22.7593C18.8603 22.9033 18.8416 23.0555 18.8537 23.2069C18.8658 23.3582 18.9085 23.5056 18.9793 23.6401C19.0501 23.7747 19.1475 23.8937 19.2657 23.9899C19.3839 24.0862 19.5204 24.1577 19.6671 24.2003C19.8137 24.2428 19.9676 24.2555 20.1193 24.2376C20.2711 24.2197 20.4176 24.1715 20.5501 24.096C20.6827 24.0205 20.7985 23.9191 20.8907 23.798H20.9061L22.5016 21.6888H28.7129L29.9958 23.6856C30.1178 23.9003 30.3076 24.069 30.536 24.1656C30.7643 24.2622 31.0183 24.2813 31.2586 24.2198C31.4989 24.1584 31.7122 24.0199 31.8652 23.8258C32.0183 23.6318 32.1026 23.3929 32.1052 23.1464C32.1074 22.9217 32.0405 22.7016 31.9134 22.5157C31.9055 22.4901 31.8952 22.4652 31.8827 22.4414Z" fill="#00BCD4"/>
<path fill-rule="evenodd" clip-rule="evenodd" d="M9.2285 7.05957L10.7032 11.1237H9.81913L9.54107 10.2892H7.95326L7.6867 11.1256H6.79883L8.25624 7.06148L9.2285 7.05957ZM8.1757 9.60324H9.31287L8.73758 7.87316L8.1757 9.60324ZM11.8901 7.05957H13.8078C14.6554 7.05957 15.0926 7.42731 15.0926 8.08847C15.1088 8.26087 15.0706 8.434 14.9833 8.58387C14.8961 8.73374 14.764 8.85293 14.6055 8.92492C14.8013 8.99297 14.9691 9.12309 15.0831 9.29525C15.1972 9.46741 15.251 9.67204 15.2364 9.87761C15.2364 10.6512 14.7129 11.1142 13.7464 11.1142H11.8901V7.05957ZM13.6582 8.6315C14.0628 8.6315 14.2565 8.50003 14.2565 8.18945C14.2565 7.87888 14.0648 7.76646 13.6525 7.76646H12.6936V8.6315H13.6582ZM13.6927 10.3902C14.153 10.3902 14.3716 10.2339 14.3716 9.86236C14.3716 9.49082 14.153 9.32505 13.687 9.32505H12.6917V10.3902H13.6927ZM19.9766 11.1237L18.5001 7.05957H17.5278L16.0742 11.1256H16.9583L17.2267 10.2892H18.8145L19.0945 11.1237H19.9766ZM18.5883 9.60324H17.4511L18.013 7.87316L18.5883 9.60324Z" fill="white"/>
<path d="M21.1465 6.2533H20.3564V7.96241H21.1465V6.2533Z" fill="#EB2227"/>
</svg>
