<?xml version="1.0" encoding="UTF-8" standalone="no"?><svg width="34" height="20" viewBox="0 0 34 20" fill="none" xmlns="http://www.w3.org/2000/svg">
<path fill-rule="evenodd" clip-rule="evenodd" d="M31.8969 20H2.10315C0.946422 20 0 19.0596 0 17.9103V2.08968C0 0.940362 0.946422 0 2.10315 0H31.8969C33.0536 0 34 0.940362 34 2.08968V17.9103C34 19.0596 33.0536 20 31.8969 20Z" fill="#E1232E"/>
<path d="M20.2524 9.22561V11.1126H18.3882C18.197 11.1126 18.0536 10.9554 18.0536 10.7739V9.23772C18.0536 9.04418 18.2089 8.89902 18.3882 8.89902H19.9059C20.109 8.88692 20.2524 9.03207 20.2524 9.22561Z" fill="white"/>
<path d="M28.9881 9.98776H28.056C28.056 8.86281 27.1478 7.9435 26.0364 7.9435C25.1521 7.9435 24.3753 8.52412 24.1124 9.37086C24.0527 9.57649 24.0168 9.78213 24.0168 9.98776V12.9876H23.9929C23.491 12.9876 23.0847 12.5763 23.0847 12.0683V9.98776H23.0966C23.0966 9.16522 23.4312 8.37896 24.0288 7.81044C24.5785 7.2903 25.2955 7 26.0484 7C27.6736 7 28.9881 8.34267 28.9881 9.98776Z" fill="white"/>
<path d="M29 12.9879L27.6855 13L27.3628 12.6734L26.6458 11.9476L25.6539 10.9436H26.9685L29 12.9879Z" fill="white"/>
<path d="M20.5632 12.0441H17.7549C17.4083 12.0441 17.1335 11.7659 17.1335 11.4151V8.57251C17.1335 8.22172 17.4083 7.9435 17.7549 7.9435H20.5632C20.9098 7.9435 21.1846 8.22172 21.1846 8.57251V11.4151L22.1167 12.3586V7.91931C22.1167 7.41127 21.7104 7 21.2085 7H17.1096C16.6077 7 16.2014 7.41127 16.2014 7.91931V12.0683C16.2014 12.5763 16.6077 12.9876 17.1096 12.9876H21.4953L20.5632 12.0441Z" fill="white"/>
<path d="M9.15058 12.9997H7.83605L5.08748 10.2055V12.9997H4V7H5.08748V9.67326L7.72849 7H9.01912L6.15105 9.87889L9.15058 12.9997Z" fill="white"/>
<path d="M14.0623 7H15.1259V12.9997H14.0623V10.399H11.0269V12.9997H9.96335V7H11.0269V9.50391H14.0623V7Z" fill="white"/>
</svg>
